<mxfile host="app.diagrams.net" modified="2024-04-08T08:05:27.682Z" agent="Mozilla/5.0 (Windows NT 10.0; Win64; x64) AppleWebKit/537.36 (KHTML, like Gecko) Chrome/123.0.0.0 Safari/537.36" etag="UaXDsdCck_qfC58SoYck" version="24.2.2" type="device" pages="2">
  <diagram name="Page-1" id="8yB1qBn-bTCC3covkLp8">
    <mxGraphModel dx="1687" dy="868" grid="1" gridSize="10" guides="1" tooltips="1" connect="1" arrows="1" fold="1" page="1" pageScale="1" pageWidth="827" pageHeight="1169" math="0" shadow="0">
      <root>
        <mxCell id="0" />
        <mxCell id="1" parent="0" />
        <mxCell id="gNoT1ACklt2IA1ysmIPT-1" value="" style="whiteSpace=wrap;html=1;aspect=fixed;strokeColor=default;" vertex="1" parent="1">
          <mxGeometry x="60" y="30" width="950" height="950" as="geometry" />
        </mxCell>
        <mxCell id="gNoT1ACklt2IA1ysmIPT-2" value="" style="whiteSpace=wrap;html=1;aspect=fixed;" vertex="1" parent="1">
          <mxGeometry x="130" y="92.5" width="850" height="850" as="geometry" />
        </mxCell>
        <mxCell id="gNoT1ACklt2IA1ysmIPT-3" value="" style="whiteSpace=wrap;html=1;aspect=fixed;" vertex="1" parent="1">
          <mxGeometry x="160" y="130" width="775" height="775" as="geometry" />
        </mxCell>
        <mxCell id="gNoT1ACklt2IA1ysmIPT-5" value="" style="outlineConnect=0;dashed=0;verticalLabelPosition=bottom;verticalAlign=top;align=center;html=1;shape=mxgraph.aws3.cloud_2;fillColor=#F58534;gradientColor=none;" vertex="1" parent="1">
          <mxGeometry x="70" y="30" width="60" height="70" as="geometry" />
        </mxCell>
        <mxCell id="gNoT1ACklt2IA1ysmIPT-6" value="" style="html=1;verticalLabelPosition=bottom;align=center;labelBackgroundColor=#ffffff;verticalAlign=top;strokeWidth=2;strokeColor=#0080F0;shadow=0;dashed=0;shape=mxgraph.ios7.icons.flag;" vertex="1" parent="1">
          <mxGeometry x="150" y="100" width="30" height="30" as="geometry" />
        </mxCell>
        <mxCell id="Yg_Zv44j3oIu4mmAZqHC-2" value="région&lt;div&gt;&lt;br&gt;&lt;/div&gt;" style="text;strokeColor=none;align=center;fillColor=none;html=1;verticalAlign=middle;whiteSpace=wrap;rounded=0;" vertex="1" parent="1">
          <mxGeometry x="190" y="92.5" width="60" height="30" as="geometry" />
        </mxCell>
        <mxCell id="Yg_Zv44j3oIu4mmAZqHC-3" value="" style="rounded=0;whiteSpace=wrap;html=1;" vertex="1" parent="1">
          <mxGeometry x="189" y="190" width="290" height="670" as="geometry" />
        </mxCell>
        <mxCell id="Yg_Zv44j3oIu4mmAZqHC-4" value="" style="rounded=0;whiteSpace=wrap;html=1;" vertex="1" parent="1">
          <mxGeometry x="590" y="190" width="310" height="662.5" as="geometry" />
        </mxCell>
        <mxCell id="Yg_Zv44j3oIu4mmAZqHC-5" value="Zone de disponbilité A" style="text;strokeColor=none;align=center;fillColor=none;html=1;verticalAlign=middle;whiteSpace=wrap;rounded=0;" vertex="1" parent="1">
          <mxGeometry x="280" y="200" width="60" height="30" as="geometry" />
        </mxCell>
        <mxCell id="Yg_Zv44j3oIu4mmAZqHC-6" value="Zone de disponibilité B" style="text;strokeColor=none;align=center;fillColor=none;html=1;verticalAlign=middle;whiteSpace=wrap;rounded=0;" vertex="1" parent="1">
          <mxGeometry x="715" y="200" width="60" height="30" as="geometry" />
        </mxCell>
        <mxCell id="Yg_Zv44j3oIu4mmAZqHC-7" value="" style="outlineConnect=0;dashed=0;verticalLabelPosition=bottom;verticalAlign=top;align=center;html=1;shape=mxgraph.aws3.virtual_private_cloud;fillColor=#F58534;gradientColor=none;" vertex="1" parent="1">
          <mxGeometry x="170" y="142.5" width="50" height="40" as="geometry" />
        </mxCell>
        <mxCell id="Yg_Zv44j3oIu4mmAZqHC-8" value="" style="outlineConnect=0;dashed=0;verticalLabelPosition=bottom;verticalAlign=top;align=center;html=1;shape=mxgraph.aws3.encrypted_data;fillColor=#7D7C7C;gradientColor=none;" vertex="1" parent="1">
          <mxGeometry x="206.5" y="261" width="43.5" height="55.5" as="geometry" />
        </mxCell>
        <mxCell id="Yg_Zv44j3oIu4mmAZqHC-9" value="" style="outlineConnect=0;dashed=0;verticalLabelPosition=bottom;verticalAlign=top;align=center;html=1;shape=mxgraph.aws3.encrypted_data;fillColor=#7D7C7C;gradientColor=none;" vertex="1" parent="1">
          <mxGeometry x="600" y="261" width="43.5" height="55.5" as="geometry" />
        </mxCell>
        <mxCell id="Yg_Zv44j3oIu4mmAZqHC-11" value="" style="outlineConnect=0;dashed=0;verticalLabelPosition=bottom;verticalAlign=top;align=center;html=1;shape=mxgraph.aws3.encrypted_data;fillColor=#7D7C7C;gradientColor=none;" vertex="1" parent="1">
          <mxGeometry x="198.25" y="640" width="43.5" height="55.5" as="geometry" />
        </mxCell>
        <mxCell id="Yg_Zv44j3oIu4mmAZqHC-12" value="" style="outlineConnect=0;dashed=0;verticalLabelPosition=bottom;verticalAlign=top;align=center;html=1;shape=mxgraph.aws3.encrypted_data;fillColor=#7D7C7C;gradientColor=none;" vertex="1" parent="1">
          <mxGeometry x="600" y="650" width="43.5" height="55.5" as="geometry" />
        </mxCell>
        <mxCell id="Yg_Zv44j3oIu4mmAZqHC-13" value="" style="strokeWidth=2;html=1;shape=mxgraph.flowchart.annotation_2;align=left;labelPosition=right;pointerEvents=1;direction=west;fillColor=#000000;" vertex="1" parent="1">
          <mxGeometry x="206.5" y="360" width="50" height="100" as="geometry" />
        </mxCell>
        <mxCell id="Yg_Zv44j3oIu4mmAZqHC-15" value="" style="rounded=0;whiteSpace=wrap;html=1;" vertex="1" parent="1">
          <mxGeometry x="206.5" y="710" width="263.5" height="130" as="geometry" />
        </mxCell>
        <mxCell id="Yg_Zv44j3oIu4mmAZqHC-16" value="" style="rounded=0;whiteSpace=wrap;html=1;" vertex="1" parent="1">
          <mxGeometry x="600" y="715" width="290" height="120" as="geometry" />
        </mxCell>
        <mxCell id="Yg_Zv44j3oIu4mmAZqHC-17" value="" style="rounded=0;whiteSpace=wrap;html=1;" vertex="1" parent="1">
          <mxGeometry x="610.87" y="321.88" width="248.25" height="258.12" as="geometry" />
        </mxCell>
        <mxCell id="Yg_Zv44j3oIu4mmAZqHC-18" value="" style="outlineConnect=0;dashed=0;verticalLabelPosition=bottom;verticalAlign=top;align=center;html=1;shape=mxgraph.aws3.internet_gateway;fillColor=#F58534;gradientColor=none;" vertex="1" parent="1">
          <mxGeometry x="1020" y="21" width="69" height="72" as="geometry" />
        </mxCell>
        <mxCell id="Yg_Zv44j3oIu4mmAZqHC-19" value="Internet&#xa;gateway" style="sketch=0;outlineConnect=0;fontColor=#232F3E;gradientColor=none;strokeColor=#232F3E;fillColor=#ffffff;dashed=0;verticalLabelPosition=bottom;verticalAlign=top;align=center;html=1;fontSize=12;fontStyle=0;aspect=fixed;shape=mxgraph.aws4.resourceIcon;resIcon=mxgraph.aws4.internet_gateway;" vertex="1" parent="1">
          <mxGeometry x="505" y="140" width="60" height="60" as="geometry" />
        </mxCell>
        <mxCell id="Yg_Zv44j3oIu4mmAZqHC-20" value="VPC : 10.0.0.0/16" style="text;strokeColor=none;align=center;fillColor=none;html=1;verticalAlign=middle;whiteSpace=wrap;rounded=0;" vertex="1" parent="1">
          <mxGeometry x="234" y="142.5" width="86" height="37.5" as="geometry" />
        </mxCell>
        <mxCell id="Yg_Zv44j3oIu4mmAZqHC-21" value="Sous-réseau public 1 :&amp;nbsp;&lt;div&gt;10.0.0.0/24&lt;/div&gt;" style="text;strokeColor=none;align=center;fillColor=none;html=1;verticalAlign=middle;whiteSpace=wrap;rounded=0;" vertex="1" parent="1">
          <mxGeometry x="280" y="255.63" width="155" height="66.25" as="geometry" />
        </mxCell>
        <mxCell id="Yg_Zv44j3oIu4mmAZqHC-22" value="Sous-réseau public 2 : 10.0.2.0/24" style="text;strokeColor=none;align=center;fillColor=none;html=1;verticalAlign=middle;whiteSpace=wrap;rounded=0;" vertex="1" parent="1">
          <mxGeometry x="680" y="263.76" width="140" height="50" as="geometry" />
        </mxCell>
        <mxCell id="Yg_Zv44j3oIu4mmAZqHC-24" value="Groupe de Sécurité&lt;div&gt;&lt;br&gt;&lt;/div&gt;" style="text;strokeColor=none;align=center;fillColor=none;html=1;verticalAlign=middle;whiteSpace=wrap;rounded=0;" vertex="1" parent="1">
          <mxGeometry x="690" y="340" width="110" height="30" as="geometry" />
        </mxCell>
        <mxCell id="Yg_Zv44j3oIu4mmAZqHC-25" value="" style="sketch=0;outlineConnect=0;fontColor=#232F3E;gradientColor=none;fillColor=#C925D1;strokeColor=none;dashed=0;verticalLabelPosition=bottom;verticalAlign=top;align=center;html=1;fontSize=12;fontStyle=0;aspect=fixed;pointerEvents=1;shape=mxgraph.aws4.rds_sql_server_instance_alt;" vertex="1" parent="1">
          <mxGeometry x="610.87" y="721" width="48" height="48" as="geometry" />
        </mxCell>
        <mxCell id="Yg_Zv44j3oIu4mmAZqHC-26" value="" style="image;points=[];aspect=fixed;html=1;align=center;shadow=0;dashed=0;image=img/lib/allied_telesis/storage/Datacenter_Server_Rack.svg;" vertex="1" parent="1">
          <mxGeometry x="625.47" y="390" width="34.53" height="70" as="geometry" />
        </mxCell>
        <mxCell id="Yg_Zv44j3oIu4mmAZqHC-27" value="" style="sketch=0;outlineConnect=0;fontColor=#232F3E;gradientColor=none;fillColor=#C925D1;strokeColor=none;dashed=0;verticalLabelPosition=bottom;verticalAlign=top;align=center;html=1;fontSize=12;fontStyle=0;aspect=fixed;pointerEvents=1;shape=mxgraph.aws4.rds_sql_server_instance_alt;" vertex="1" parent="1">
          <mxGeometry x="211" y="715" width="49" height="49" as="geometry" />
        </mxCell>
        <mxCell id="Yg_Zv44j3oIu4mmAZqHC-31" value="Sous-Réseau privé 1 :&amp;nbsp;&lt;div&gt;10.0.1.0/24&lt;/div&gt;" style="text;strokeColor=none;align=center;fillColor=none;html=1;verticalAlign=middle;whiteSpace=wrap;rounded=0;" vertex="1" parent="1">
          <mxGeometry x="269" y="635.5" width="130" height="60" as="geometry" />
        </mxCell>
        <mxCell id="Yg_Zv44j3oIu4mmAZqHC-32" value="Sous-réseau privé 2 :&amp;nbsp;&lt;div&gt;10.0.3.0/24&lt;/div&gt;" style="text;strokeColor=none;align=center;fillColor=none;html=1;verticalAlign=middle;whiteSpace=wrap;rounded=0;" vertex="1" parent="1">
          <mxGeometry x="674.99" y="655.5" width="120" height="40" as="geometry" />
        </mxCell>
        <mxCell id="Yg_Zv44j3oIu4mmAZqHC-33" value="Passerelle NAT" style="text;strokeColor=none;align=center;fillColor=none;html=1;verticalAlign=middle;whiteSpace=wrap;rounded=0;" vertex="1" parent="1">
          <mxGeometry x="280" y="380" width="90" height="60" as="geometry" />
        </mxCell>
        <mxCell id="Yg_Zv44j3oIu4mmAZqHC-34" value="BDD RDS principale" style="text;strokeColor=none;align=center;fillColor=none;html=1;verticalAlign=middle;whiteSpace=wrap;rounded=0;" vertex="1" parent="1">
          <mxGeometry x="260" y="724.75" width="110" height="40.5" as="geometry" />
        </mxCell>
        <mxCell id="Yg_Zv44j3oIu4mmAZqHC-35" value="BDD RDS secondaire" style="text;strokeColor=none;align=center;fillColor=none;html=1;verticalAlign=middle;whiteSpace=wrap;rounded=0;" vertex="1" parent="1">
          <mxGeometry x="680" y="730" width="60" height="30" as="geometry" />
        </mxCell>
        <mxCell id="Yg_Zv44j3oIu4mmAZqHC-36" value="" style="endArrow=none;dashed=1;html=1;dashPattern=1 3;strokeWidth=2;rounded=0;exitX=0;exitY=1;exitDx=0;exitDy=0;entryX=1;entryY=1;entryDx=0;entryDy=0;" edge="1" parent="1" source="Yg_Zv44j3oIu4mmAZqHC-34" target="Yg_Zv44j3oIu4mmAZqHC-35">
          <mxGeometry width="50" height="50" relative="1" as="geometry">
            <mxPoint x="610" y="810" as="sourcePoint" />
            <mxPoint x="660" y="760" as="targetPoint" />
          </mxGeometry>
        </mxCell>
        <mxCell id="Yg_Zv44j3oIu4mmAZqHC-37" value="" style="endArrow=classic;html=1;rounded=0;" edge="1" parent="1" target="Yg_Zv44j3oIu4mmAZqHC-26">
          <mxGeometry width="50" height="50" relative="1" as="geometry">
            <mxPoint x="252" y="745.5" as="sourcePoint" />
            <mxPoint x="302" y="695.5" as="targetPoint" />
          </mxGeometry>
        </mxCell>
        <mxCell id="Yg_Zv44j3oIu4mmAZqHC-38" value="Serveur WEB&lt;div&gt;&lt;br&gt;&lt;/div&gt;" style="text;strokeColor=none;align=center;fillColor=none;html=1;verticalAlign=middle;whiteSpace=wrap;rounded=0;" vertex="1" parent="1">
          <mxGeometry x="690" y="410" width="100" height="50" as="geometry" />
        </mxCell>
        <mxCell id="Yg_Zv44j3oIu4mmAZqHC-39" value="Internet&lt;div style=&quot;font-size: 20px;&quot;&gt;&lt;br style=&quot;font-size: 20px;&quot;&gt;&lt;/div&gt;" style="text;strokeColor=none;align=center;fillColor=none;html=1;verticalAlign=middle;whiteSpace=wrap;rounded=0;fontStyle=1;fontSize=20;" vertex="1" parent="1">
          <mxGeometry x="1020" y="100" width="161" height="67" as="geometry" />
        </mxCell>
        <mxCell id="Yg_Zv44j3oIu4mmAZqHC-45" value="" style="endArrow=classic;html=1;rounded=0;" edge="1" parent="1" source="Yg_Zv44j3oIu4mmAZqHC-18" target="Yg_Zv44j3oIu4mmAZqHC-19">
          <mxGeometry width="50" height="50" relative="1" as="geometry">
            <mxPoint x="1170" y="230" as="sourcePoint" />
            <mxPoint x="1030" y="430" as="targetPoint" />
          </mxGeometry>
        </mxCell>
      </root>
    </mxGraphModel>
  </diagram>
  <diagram id="1oy70AOQGUpsgAiK76NV" name="Page-2">
    <mxGraphModel dx="1434" dy="738" grid="1" gridSize="10" guides="1" tooltips="1" connect="1" arrows="1" fold="1" page="1" pageScale="1" pageWidth="827" pageHeight="1169" math="0" shadow="0">
      <root>
        <mxCell id="0" />
        <mxCell id="1" parent="0" />
      </root>
    </mxGraphModel>
  </diagram>
</mxfile>
